<svg width="128" height="128" viewBox="0 0 128 128" fill="none" xmlns="http://www.w3.org/2000/svg">
<path fill-rule="evenodd" clip-rule="evenodd" d="M65.4376 124.889C65.4292 125.435 64.9868 125.88 64.44 125.88V125.88C63.8932 125.88 63.4508 125.435 63.4424 124.889C63.1997 109.152 57.1624 95.3624 45.34 83.54C33.5174 71.7174 19.7377 65.6802 3.99129 65.4376C3.44459 65.4292 3 64.9868 3 64.44V64.44C3 63.8932 3.44459 63.4508 3.99129 63.4424C19.7377 63.1998 33.5174 57.1619 45.34 45.31C57.1617 33.459 63.1989 19.6798 63.4423 3.99124C63.4508 3.44455 63.8932 3 64.44 3V3C64.9868 3 65.4292 3.44458 65.4376 3.99127C65.6803 19.7284 71.7176 33.5176 83.54 45.34C95.3626 57.1626 109.142 63.1998 124.889 63.4424C125.435 63.4508 125.88 63.8932 125.88 64.44V64.44C125.88 64.9868 125.435 65.4292 124.889 65.4376C109.152 65.6803 95.3624 71.7176 83.54 83.54C71.7174 95.3626 65.6802 109.142 65.4376 124.889Z" fill="#ffc4e9"/>
</svg>
